<svg width="92" height="24" viewBox="0 0 92 24" fill="none" xmlns="http://www.w3.org/2000/svg">
<path d="M22.3682 19.6773L21.2382 17.7737H4.99893L13.1312 3.70339L11.0078 0H8.26752C7.6791 0.0013206 7.10157 0.158808 6.59393 0.456374C6.08629 0.75394 5.66673 1.18092 5.37812 1.6937L0.463854 10.3644C0.178117 10.8649 0.027832 11.4313 0.027832 12.0076C0.027832 12.5839 0.178117 13.1502 0.463854 13.6507L3.90434 19.7177L5.37812 22.3164C5.63073 22.7621 5.9831 23.1434 6.40763 23.4302C6.83216 23.717 7.31733 23.9016 7.82513 23.9697C7.97087 23.99 8.11785 24.0001 8.26499 24H17.9848C18.573 24.0003 19.1508 23.8447 19.6593 23.5489C20.1678 23.2532 20.5887 22.8279 20.8793 22.3164L22.3429 19.7177L22.3682 19.6773Z" fill="url(#paint0_linear_1706_3084)"/>
<path d="M21.2383 17.7745H5.0293L5.09755 17.734L10.5376 14.4629C11.3769 13.9169 12.0089 13.5984 12.6029 13.4947C12.6164 13.4935 12.6299 13.4935 12.6434 13.4947L12.7597 13.4796L12.9619 13.4644H13.0832C13.1805 13.467 13.2775 13.4746 13.3739 13.4871C13.9933 13.5706 14.6581 13.879 15.5631 14.4022L21.2079 17.7543L21.2383 17.7745Z" fill="url(#paint1_linear_1706_3084)"/>
<path d="M22.3682 19.6781L22.3404 19.7261L20.8742 22.3147C20.5849 22.8261 20.1649 23.2515 19.6572 23.5473C19.1495 23.8431 18.5724 23.9987 17.9848 23.9983H8.26495C8.1178 23.9984 7.97082 23.9883 7.82509 23.9679C7.31645 23.9005 6.83035 23.7161 6.40491 23.4293C5.97948 23.1424 5.62628 22.7609 5.37301 22.3147L3.9043 19.7185L5.02669 17.7771L5.08483 17.7417L10.535 14.4554C11.3768 13.9094 12.0063 13.5883 12.6028 13.4872C12.6163 13.486 12.6298 13.486 12.6433 13.4872L12.7596 13.472L12.9618 13.4569H13.0831C13.1804 13.4595 13.2774 13.4671 13.3739 13.4796C13.9932 13.5631 14.6555 13.874 15.5605 14.3947L21.2079 17.7543L21.2407 17.7746L22.3682 19.6781Z" fill="url(#paint2_linear_1706_3084)"/>
<g opacity="0.5">
<path d="M15.5455 14.3936C13.4019 13.1448 12.6005 13.1069 10.52 14.4618L5.01172 17.7734L10.52 15.1671C12.6005 13.8096 13.3943 13.8577 15.5455 15.0963L21.2232 17.7759L15.5455 14.3936Z" fill="url(#paint3_linear_1706_3084)"/>
</g>
<path d="M25.7885 13.6507L22.343 19.7177L22.3708 19.6697L21.2383 17.7737L13.149 3.6857V3.70339L11.0078 0H17.9874C18.5761 0.00165486 19.1538 0.159258 19.6618 0.456768C20.1698 0.754277 20.5899 1.18107 20.8793 1.6937L25.7885 10.3644C26.073 10.8653 26.2226 11.4315 26.2226 12.0076C26.2226 12.5836 26.073 13.1498 25.7885 13.6507Z" fill="url(#paint4_linear_1706_3084)"/>
<path d="M0.436022 13.6507L3.88409 19.7177L3.85629 19.6697L4.98626 17.7662L13.0756 3.67811V3.69581L15.2218 0H8.23969C7.65126 0.0013206 7.07374 0.158808 6.5661 0.456374C6.05846 0.75394 5.6389 1.18092 5.35028 1.6937L0.436022 10.3644C0.150285 10.8649 0 11.4313 0 12.0076C0 12.5839 0.150285 13.1502 0.436022 13.6507Z" fill="url(#paint5_linear_1706_3084)"/>
<path opacity="0.51" d="M15.2216 0L13.1133 3.668L13.5051 4.2924L15.2216 0Z" fill="url(#paint6_linear_1706_3084)"/>
<path d="M88.4419 18.2011V6.37049H91.1923V18.2011H88.4419ZM88.0981 3.47856C88.0981 2.44717 88.7655 1.75958 89.8171 1.75958C90.889 1.75958 91.5361 2.44717 91.5361 3.47856C91.5361 4.50995 90.889 5.17732 89.8171 5.17732C88.7048 5.17732 88.0981 4.50995 88.0981 3.47856Z" fill="white"/>
<path d="M80.3141 18.4453C77.4626 18.4453 74.4897 16.1802 74.4897 12.2974C74.4897 8.37406 77.3615 6.12927 80.3545 6.12927C81.9117 6.12927 83.2869 6.75619 84.1565 7.78758V6.37195H86.8866V18.2026H84.1565V16.6656C83.2869 17.7779 81.8712 18.4453 80.3141 18.4453ZM80.759 15.9376C82.8015 15.9376 84.298 14.2995 84.298 12.2569C84.298 10.2346 82.8015 8.61674 80.759 8.61674C78.7366 8.61674 77.1794 10.2144 77.1794 12.2569C77.1794 14.3197 78.7366 15.9376 80.759 15.9376Z" fill="white"/>
<path d="M70.3433 16.8064C70.3433 15.8154 70.9702 15.148 72.0016 15.148C73.033 15.148 73.6397 15.8154 73.6397 16.8064C73.6397 17.7771 73.0127 18.4444 71.9814 18.4444C70.95 18.4444 70.3433 17.7771 70.3433 16.8064Z" fill="white"/>
<path d="M63.478 18.4453C59.7569 18.4453 57.229 15.7353 57.229 12.3176C57.229 8.85942 59.9187 6.12927 63.3769 6.12927C66.8957 6.12927 69.4641 8.71785 69.4641 12.2165V13.2479H59.8378C60.2221 14.9264 61.5366 16.0387 63.478 16.0387C65.015 16.0387 66.1879 15.2298 66.7542 13.9557L68.999 15.25C67.9676 17.1712 66.1475 18.4453 63.478 18.4453ZM63.3769 8.53584C61.7388 8.53584 60.4647 9.50656 59.9794 10.9626H66.6935C66.289 9.365 65.0756 8.53584 63.3769 8.53584Z" fill="white"/>
<path d="M50.3184 18.1999L45.8086 6.36929H48.6601L51.7138 14.7013L54.7068 6.36929H57.5179L53.0688 18.1999H50.3184Z" fill="white"/>
<path d="M33.9619 18.1989L39.22 3.43585H41.9906L47.2486 18.1989H44.3769L43.4669 15.5698H37.7437L36.8336 18.1989H33.9619ZM40.6154 7.33895L38.6739 12.9408H42.5568L40.6154 7.33895Z" fill="white"/>
<defs>
<linearGradient id="paint0_linear_1706_3084" x1="19.5185" y1="21.8664" x2="0.542554" y2="8.20704" gradientUnits="userSpaceOnUse">
<stop stop-color="#8B4FDD"/>
<stop offset="1" stop-color="#12B886"/>
</linearGradient>
<linearGradient id="paint1_linear_1706_3084" x1="19.1706" y1="17.3913" x2="16.9606" y2="10.964" gradientUnits="userSpaceOnUse">
<stop stop-color="#8B4FDD"/>
<stop offset="1" stop-color="#12B886"/>
</linearGradient>
<linearGradient id="paint2_linear_1706_3084" x1="20.0129" y1="23.0612" x2="11.6134" y2="11.6841" gradientUnits="userSpaceOnUse">
<stop stop-color="#8B4FDD"/>
<stop offset="1" stop-color="#12B886"/>
</linearGradient>
<linearGradient id="paint3_linear_1706_3084" x1="19.1553" y1="17.3915" x2="16.9321" y2="10.9468" gradientUnits="userSpaceOnUse">
<stop stop-color="#8B4FDD"/>
<stop offset="1" stop-color="#12B886"/>
</linearGradient>
<linearGradient id="paint4_linear_1706_3084" x1="24.2818" y1="17.9648" x2="9.81356" y2="9.33156" gradientUnits="userSpaceOnUse">
<stop stop-color="#8B4FDD"/>
<stop offset="1" stop-color="#12B886"/>
</linearGradient>
<linearGradient id="paint5_linear_1706_3084" x1="13.2801" y1="17.9648" x2="-1.19132" y2="9.32573" gradientUnits="userSpaceOnUse">
<stop stop-color="#8B4FDD"/>
<stop offset="1" stop-color="#12B886"/>
</linearGradient>
<linearGradient id="paint6_linear_1706_3084" x1="14.9526" y1="3.91081" x2="12.5767" y2="3.00839" gradientUnits="userSpaceOnUse">
<stop stop-color="#8B4FDD"/>
<stop offset="1" stop-color="#12B886"/>
</linearGradient>
</defs>
</svg>
